<svg xmlns="http://www.w3.org/2000/svg" xmlns:xlink="http://www.w3.org/1999/xlink" width="500" zoomAndPan="magnify" viewBox="0 0 375 374.999991" height="500" preserveAspectRatio="xMidYMid meet" version="1.0"><defs><clipPath id="id1"><path d="M 231 141 L 368.015625 141 L 368.015625 224 L 231 224 Z M 231 141 " clip-rule="nonzero"/></clipPath><clipPath id="id2"><path d="M 231 162 L 368.015625 162 L 368.015625 224 L 231 224 Z M 231 162 " clip-rule="nonzero"/></clipPath></defs><path fill="#9f9f9e" d="M 223.082031 287.171875 L 243.414062 314.796875 L 275.175781 316.011719 L 283.472656 285.363281 L 263.125 257.722656 C 256.578125 262.539062 248.238281 262.324219 244.484375 257.230469 C 240.75 252.148438 243.023438 244.117188 249.570312 239.3125 L 242.34375 229.503906 C 235.796875 234.320312 227.453125 234.089844 223.703125 229.011719 C 219.964844 223.929688 222.238281 215.898438 228.785156 211.078125 L 207.222656 181.820312 L 167.175781 211.269531 L 188.726562 240.53125 C 195.273438 235.710938 203.613281 235.941406 207.367188 241.023438 C 211.117188 246.117188 208.84375 254.132812 202.296875 258.953125 L 209.507812 268.75 C 216.054688 263.945312 224.398438 264.160156 228.148438 269.253906 C 231.898438 274.335938 229.625 282.367188 223.082031 287.171875 " fill-opacity="1" fill-rule="nonzero"/><path fill="#b7b6b5" d="M 207.367188 241.023438 C 211.117188 246.117188 208.84375 254.132812 202.296875 258.953125 L 209.507812 268.75 C 216.054688 263.945312 224.398438 264.160156 228.148438 269.253906 C 231.898438 274.335938 229.625 282.367188 223.082031 287.171875 L 243.414062 314.796875 L 275.175781 316.011719 L 187.207031 196.535156 L 167.175781 211.269531 L 188.726562 240.53125 C 195.273438 235.710938 203.613281 235.941406 207.367188 241.023438 " fill-opacity="1" fill-rule="nonzero"/><path fill="#9f9f9e" d="M 142.046875 330.078125 L 148.289062 360.945312 L 174.273438 374.21875 L 193.042969 351.902344 L 186.785156 321.035156 C 179.472656 322.511719 172.609375 319.09375 171.464844 313.421875 C 170.304688 307.734375 175.300781 301.933594 182.628906 300.457031 L 180.398438 289.5 C 173.085938 290.976562 166.21875 287.5625 165.078125 281.890625 C 163.933594 276.203125 168.929688 270.398438 176.242188 268.921875 L 169.625 236.21875 L 124.871094 245.261719 L 131.492188 277.96875 C 138.804688 276.492188 145.667969 279.890625 146.8125 285.578125 C 147.972656 291.253906 142.976562 297.070312 135.660156 298.546875 L 137.878906 309.5 C 145.191406 308.023438 152.054688 311.425781 153.199219 317.113281 C 154.359375 322.785156 149.363281 328.601562 142.046875 330.078125 " fill-opacity="1" fill-rule="nonzero"/><path fill="#b7b6b5" d="M 146.8125 285.578125 C 147.972656 291.253906 142.976562 297.070312 135.660156 298.546875 L 137.878906 309.5 C 145.191406 308.023438 152.054688 311.425781 153.199219 317.113281 C 154.359375 322.785156 149.363281 328.601562 142.046875 330.078125 L 148.289062 360.945312 L 174.273438 374.21875 L 147.246094 240.730469 L 124.871094 245.261719 L 131.492188 277.96875 C 138.804688 276.492188 145.667969 279.890625 146.8125 285.578125 " fill-opacity="1" fill-rule="nonzero"/><path fill="#ffbd4a" d="M 132.835938 169.546875 C 140.832031 167.941406 148.625 173.105469 150.230469 181.082031 C 151.855469 189.070312 146.683594 196.855469 138.6875 198.476562 C 130.695312 200.082031 122.902344 194.929688 121.292969 186.941406 C 121.035156 185.667969 120.945312 184.410156 121.019531 183.179688 C 121.382812 176.636719 126.117188 170.90625 132.835938 169.546875 Z M 149.550781 252.09375 C 176.417969 246.664062 193.796875 220.488281 188.363281 193.628906 C 182.933594 166.78125 156.734375 149.417969 129.855469 154.84375 C 102.988281 160.269531 85.59375 186.449219 91.039062 213.308594 C 96.472656 240.152344 122.671875 257.519531 149.550781 252.09375 " fill-opacity="1" fill-rule="nonzero"/><g clip-path="url(#id1)"><path fill="#9f9f9e" d="M 313.625 212.789062 L 343.417969 223.089844 L 368.054688 207.476562 L 358.351562 179.980469 L 328.558594 169.675781 C 326.125 176.722656 319.695312 180.90625 314.21875 179.011719 C 308.730469 177.113281 306.269531 169.863281 308.703125 162.816406 L 298.128906 159.15625 C 295.695312 166.203125 289.265625 170.371094 283.792969 168.488281 C 278.304688 166.578125 275.839844 159.328125 278.289062 152.28125 L 246.730469 141.371094 L 231.796875 184.480469 L 263.34375 195.394531 C 265.789062 188.34375 272.207031 184.175781 277.695312 186.074219 C 283.183594 187.96875 285.644531 195.21875 283.199219 202.265625 L 293.769531 205.929688 C 296.21875 198.867188 302.632812 194.699219 308.125 196.59375 C 313.597656 198.488281 316.074219 205.738281 313.625 212.789062 " fill-opacity="1" fill-rule="nonzero"/></g><g clip-path="url(#id2)"><path fill="#b7b6b5" d="M 277.695312 186.074219 C 283.183594 187.96875 285.644531 195.21875 283.199219 202.265625 L 293.769531 205.929688 C 296.21875 198.867188 302.632812 194.699219 308.125 196.59375 C 313.597656 198.488281 316.074219 205.738281 313.625 212.789062 L 343.417969 223.089844 L 368.054688 207.476562 L 239.257812 162.933594 L 231.796875 184.480469 L 263.34375 195.394531 C 265.789062 188.34375 272.207031 184.175781 277.695312 186.074219 " fill-opacity="1" fill-rule="nonzero"/></g><path fill="#ffbd4a" d="M 170.578125 139.171875 C 173.246094 131.472656 181.644531 127.390625 189.347656 130.054688 C 197.054688 132.714844 201.136719 141.125 198.472656 148.824219 C 195.808594 156.523438 187.394531 160.601562 179.691406 157.941406 C 171.984375 155.277344 167.902344 146.871094 170.578125 139.171875 Z M 250.207031 166.710938 C 259.1875 140.820312 245.457031 112.570312 219.53125 103.613281 C 193.621094 94.640625 165.351562 108.375 156.386719 134.265625 C 147.40625 160.15625 161.136719 188.402344 187.0625 197.375 C 212.972656 206.332031 241.242188 192.613281 250.207031 166.710938 " fill-opacity="1" fill-rule="nonzero"/><path fill="#9f9f9e" d="M 184.527344 129.242188 L 184.367188 129.242188 C 182.671875 132.933594 180.6875 136.535156 178.414062 139.953125 C 176.140625 143.398438 173.605469 146.609375 170.871094 149.589844 C 162.453125 158.765625 152.042969 165.742188 140.457031 170.023438 C 135.457031 171.875 130.246094 173.25 124.886719 174.0625 C 122.480469 176.679688 120.992188 180.167969 120.992188 184.019531 C 120.992188 185.828125 121.339844 187.5625 121.945312 189.171875 C 131.894531 188.214844 141.453125 185.695312 150.347656 181.832031 C 162.554688 176.523438 173.519531 168.636719 182.484375 158.589844 C 185.425781 155.304688 188.148438 151.789062 190.625 148.042969 C 193.101562 144.335938 195.289062 140.429688 197.183594 136.421875 C 194.605469 132.125 189.898438 129.242188 184.527344 129.242188 " fill-opacity="1" fill-rule="nonzero"/><path fill="#9f9f9e" d="M 156.460938 31.472656 C 179.398438 46.667969 192.78125 73.210938 191.390625 100.707031 C 191.363281 101.253906 191.40625 101.777344 191.492188 102.28125 C 195.273438 101.371094 199.226562 100.863281 203.296875 100.863281 C 204.222656 100.863281 205.136719 100.894531 206.046875 100.9375 C 207.496094 68.476562 191.652344 37.21875 164.570312 19.273438 C 143.875 5.539062 119.0625 0.691406 94.71875 5.628906 C 70.386719 10.535156 49.417969 24.644531 35.6875 45.308594 C 7.34375 88 19.03125 145.769531 61.753906 174.089844 C 71.269531 180.398438 81.699219 184.84375 92.75 187.316406 C 94.371094 182.613281 96.675781 178.230469 99.542969 174.277344 C 98.832031 173.84375 98.050781 173.496094 97.195312 173.324219 C 87.433594 171.296875 78.238281 167.449219 69.851562 161.890625 C 33.863281 138.027344 24.011719 89.375 47.894531 53.414062 C 71.777344 17.449219 120.484375 7.609375 156.460938 31.472656 " fill-opacity="1" fill-rule="nonzero"/></svg>