<svg xmlns="http://www.w3.org/2000/svg" xmlns:xlink="http://www.w3.org/1999/xlink" width="500" zoomAndPan="magnify" viewBox="0 0 375 374.999991" height="500" preserveAspectRatio="xMidYMid meet" version="1.0"><defs><clipPath id="id1"><path d="M 18 8.308594 L 371.214844 8.308594 L 371.214844 366.808594 L 18 366.808594 Z M 18 8.308594 " clip-rule="nonzero"/></clipPath><clipPath id="id2"><path d="M 3.714844 69 L 148 69 L 148 291 L 3.714844 291 Z M 3.714844 69 " clip-rule="nonzero"/></clipPath></defs><g clip-path="url(#id1)"><path fill="#ffbd4a" d="M 157.5625 53.691406 L 156.570312 17.675781 C 158.082031 16.863281 159.136719 15.1875 159.136719 13.273438 C 159.136719 10.546875 157.085938 8.332031 154.550781 8.332031 C 152.003906 8.332031 149.964844 10.546875 149.964844 13.273438 C 149.964844 15.503906 151.355469 17.390625 153.289062 17.988281 L 153.289062 52.929688 C 152.6875 52.828125 152.089844 52.71875 151.484375 52.617188 L 151.484375 20.523438 C 151.484375 20.523438 125.28125 13.351562 113.582031 27.488281 C 101.898438 41.625 96.816406 42.898438 88.664062 34.382812 C 88.664062 34.382812 90.542969 50.316406 106.808594 55.386719 C 120.101562 59.511719 136.253906 35.492188 151.484375 61.574219 L 151.484375 52.984375 C 151.855469 53.382812 152.472656 54.050781 153.289062 54.96875 L 153.289062 277.621094 C 141.621094 287.101562 127.675781 296.300781 111.097656 305.074219 C 111.097656 305.074219 128.816406 303.316406 153.289062 300.300781 L 153.289062 313.160156 C 116.765625 314.292969 74 314.878906 24.019531 314.617188 C 24.019531 314.617188 18.335938 313.71875 18.507812 323.425781 C 18.644531 333.113281 15.265625 367.535156 26.796875 367.535156 L 55.910156 367.535156 C 57.359375 366.65625 59.066406 365.976562 61.140625 365.574219 C 71.964844 363.5 85.234375 351.34375 96.492188 355.132812 C 101.609375 356.851562 106.628906 359.566406 111.511719 361.894531 C 116.628906 364.292969 122.464844 364.886719 127.746094 366.933594 C 128.253906 367.113281 128.730469 367.324219 129.191406 367.535156 L 154.636719 367.535156 C 155.683594 367.085938 156.820312 366.742188 158.082031 366.472656 C 169.199219 364.273438 178.59375 356.535156 190.058594 355.730469 C 200.589844 354.996094 209.648438 362.199219 219.269531 365.574219 C 220.761719 366.089844 222.050781 366.761719 223.238281 367.535156 L 259.339844 367.535156 C 259.550781 367.402344 259.761719 367.269531 259.972656 367.113281 C 264.519531 364.371094 269.605469 362.644531 274.246094 359.996094 C 279.410156 357.0625 284.585938 354.863281 290.644531 355.027344 C 298.003906 355.257812 303.261719 359.664062 309.453125 362.867188 C 312.148438 364.257812 315.074219 365.183594 318.09375 365.949219 C 326.816406 361.25 350.125 344.523438 361.613281 295.917969 C 361.613281 295.917969 366.410156 288.9375 348.808594 294.023438 C 335.441406 297.875 287.5 308.441406 164.695312 312.78125 L 164.316406 298.90625 C 201.503906 294.121094 249.097656 286.941406 275.742188 278.789062 C 323.847656 264.078125 369.5625 282.046875 371.167969 292.179688 C 371.167969 292.179688 379.953125 94.589844 157.5625 53.691406 Z M 163.484375 268.742188 L 157.742188 60.175781 C 180.75 88.035156 250.777344 186.917969 163.484375 268.742188 Z M 163.484375 268.742188 " fill-opacity="1" fill-rule="nonzero"/></g><g clip-path="url(#id2)"><path fill="#ffbd4a" d="M 147.492188 277.003906 L 147.492188 69.867188 C 60.394531 276.417969 3.714844 277.003906 3.714844 277.003906 C 24.628906 307.4375 147.492188 277.003906 147.492188 277.003906 Z M 147.492188 277.003906 " fill-opacity="1" fill-rule="nonzero"/></g></svg>