<svg xmlns="http://www.w3.org/2000/svg" xmlns:xlink="http://www.w3.org/1999/xlink" width="1400" zoomAndPan="magnify" viewBox="0 0 1050 1049.999947" height="1400" preserveAspectRatio="xMidYMid meet" version="1.0"><defs><clipPath id="id1"><path d="M 272.152344 0 L 998 0 L 998 1050 L 272.152344 1050 Z M 272.152344 0 " clip-rule="nonzero"/></clipPath></defs><g clip-path="url(#id1)"><path fill="#ffffff" d="M 272.753906 406.328125 L 583.214844 -33.871094 L 584.648438 -31.921875 L 811.230469 274.148438 L 995.402344 145.621094 L 997.414062 148.496094 L 810.445312 278.96875 L 583.285156 -27.898438 L 277.492188 405.679688 L 813.34375 844.3125 L 812.15625 845.675781 L 487.605469 1217.996094 L 741.175781 1473.214844 L 738.6875 1475.6875 L 482.820312 1218.144531 L 483.894531 1216.917969 L 808.328125 844.726562 L 272.753906 406.328125 " fill-opacity="1" fill-rule="nonzero"/></g><path fill="#ffffff" d="M 275.792969 426.179688 C 263.242188 426.179688 253.070312 416.011719 253.070312 403.460938 C 253.070312 390.914062 263.242188 380.734375 275.792969 380.734375 C 288.347656 380.734375 298.519531 390.914062 298.519531 403.460938 C 298.519531 416.011719 288.347656 426.179688 275.792969 426.179688 " fill-opacity="1" fill-rule="nonzero"/><path fill="#ffffff" d="M 316.804688 403.460938 C 316.804688 380.863281 298.402344 362.46875 275.792969 362.46875 C 253.1875 362.46875 234.796875 380.863281 234.796875 403.460938 C 234.796875 426.0625 253.1875 444.445312 275.792969 444.445312 C 298.402344 444.445312 316.804688 426.0625 316.804688 403.460938 Z M 232.136719 403.460938 C 232.136719 379.394531 251.71875 359.8125 275.792969 359.8125 C 299.871094 359.8125 319.449219 379.394531 319.449219 403.460938 C 319.449219 427.53125 299.871094 447.101562 275.792969 447.101562 C 251.71875 447.101562 232.136719 427.53125 232.136719 403.460938 " fill-opacity="1" fill-rule="nonzero"/><path fill="#ffffff" d="M 809.671875 296.679688 C 797.117188 296.679688 786.945312 286.5 786.945312 273.953125 C 786.945312 261.40625 797.117188 251.238281 809.671875 251.238281 C 822.222656 251.238281 832.394531 261.40625 832.394531 273.953125 C 832.394531 286.5 822.222656 296.679688 809.671875 296.679688 " fill-opacity="1" fill-rule="nonzero"/><path fill="#ffffff" d="M 850.667969 273.953125 C 850.667969 251.363281 832.277344 232.96875 809.671875 232.96875 C 787.0625 232.96875 768.660156 251.363281 768.660156 273.953125 C 768.660156 296.550781 787.0625 314.945312 809.671875 314.945312 C 832.277344 314.945312 850.667969 296.550781 850.667969 273.953125 Z M 766.003906 273.953125 C 766.003906 249.886719 785.59375 230.3125 809.671875 230.3125 C 833.746094 230.3125 853.328125 249.886719 853.328125 273.953125 C 853.328125 298.019531 833.746094 317.605469 809.671875 317.605469 C 785.59375 317.605469 766.003906 298.019531 766.003906 273.953125 " fill-opacity="1" fill-rule="nonzero"/><path fill="#ffffff" d="M 623.082031 -30.878906 C 623.082031 -53.480469 604.691406 -71.875 582.082031 -71.875 C 559.476562 -71.875 541.074219 -53.480469 541.074219 -30.878906 C 541.074219 -8.28125 559.476562 10.101562 582.082031 10.101562 C 604.691406 10.101562 623.082031 -8.28125 623.082031 -30.878906 Z M 538.414062 -30.878906 C 538.414062 -54.949219 558.007812 -74.53125 582.082031 -74.53125 C 606.160156 -74.53125 625.738281 -54.949219 625.738281 -30.878906 C 625.738281 -6.8125 606.160156 12.757812 582.082031 12.757812 C 558.007812 12.757812 538.414062 -6.8125 538.414062 -30.878906 " fill-opacity="1" fill-rule="nonzero"/><path fill="#ffffff" d="M 809.671875 866.839844 C 797.117188 866.839844 786.945312 856.671875 786.945312 844.125 C 786.945312 831.578125 797.117188 821.410156 809.671875 821.410156 C 822.222656 821.410156 832.394531 831.578125 832.394531 844.125 C 832.394531 856.671875 822.222656 866.839844 809.671875 866.839844 " fill-opacity="1" fill-rule="nonzero"/><path fill="#ffffff" d="M 850.667969 844.125 C 850.667969 821.527344 832.277344 803.132812 809.671875 803.132812 C 787.0625 803.132812 768.660156 821.527344 768.660156 844.125 C 768.660156 866.726562 787.0625 885.109375 809.671875 885.109375 C 832.277344 885.109375 850.667969 866.726562 850.667969 844.125 Z M 766.003906 844.125 C 766.003906 820.058594 785.59375 800.472656 809.671875 800.472656 C 833.746094 800.472656 853.328125 820.058594 853.328125 844.125 C 853.328125 868.191406 833.746094 887.765625 809.671875 887.765625 C 785.59375 887.765625 766.003906 868.191406 766.003906 844.125 " fill-opacity="1" fill-rule="nonzero"/><path fill="#ffffff" d="M 664.019531 697.910156 L 666.242188 695.203125 L 673.015625 700.738281 L 670.792969 703.453125 L 664.019531 697.910156 " fill-opacity="1" fill-rule="nonzero"/><path fill="#ffffff" d="M 636.523438 675.402344 L 638.742188 672.695312 L 652.496094 683.949219 L 650.277344 686.65625 Z M 609.039062 652.894531 L 611.257812 650.191406 L 625 661.445312 L 622.78125 664.148438 Z M 581.539062 630.386719 L 583.757812 627.683594 L 597.503906 638.9375 L 595.28125 641.640625 Z M 554.042969 607.878906 L 556.261719 605.175781 L 570.003906 616.429688 L 567.785156 619.132812 Z M 526.542969 585.371094 L 528.765625 582.667969 L 542.507812 593.921875 L 540.289062 596.625 Z M 499.046875 562.863281 L 501.265625 560.160156 L 515.007812 571.414062 L 512.789062 574.117188 Z M 471.550781 540.355469 L 473.769531 537.652344 L 487.511719 548.90625 L 485.292969 551.609375 Z M 444.050781 517.847656 L 446.269531 515.144531 L 460.027344 526.398438 L 457.804688 529.101562 L 444.050781 517.847656 " fill-opacity="1" fill-rule="nonzero"/><path fill="#ffffff" d="M 423.535156 501.050781 L 425.753906 498.34375 L 432.527344 503.890625 L 430.308594 506.59375 L 423.535156 501.050781 " fill-opacity="1" fill-rule="nonzero"/><path fill="#ffffff" d="M 705.402344 96.804688 L 708.210938 94.714844 L 718.648438 108.773438 L 715.828125 110.855469 Z M 684.539062 68.691406 L 687.347656 66.601562 L 697.785156 80.664062 L 694.976562 82.742188 Z M 663.675781 40.582031 L 666.496094 38.503906 L 676.921875 52.550781 L 674.113281 54.644531 Z M 642.8125 12.472656 L 645.632812 10.390625 L 656.058594 24.441406 L 653.238281 26.53125 L 642.8125 12.472656 " fill-opacity="1" fill-rule="nonzero"/><path fill="#ffffff" d="M 897.722656 806.527344 L 900.949219 805.152344 C 905.640625 816.09375 908.277344 827.71875 908.808594 839.6875 L 905.304688 839.851562 C 904.796875 828.296875 902.242188 817.089844 897.722656 806.527344 Z M 884.5 903.8125 C 891.710938 894.777344 897.179688 884.65625 900.726562 873.726562 L 904.058594 874.8125 C 900.382812 886.136719 894.71875 896.640625 887.226562 906 Z M 851.222656 757.898438 L 852.75 754.742188 C 863.488281 759.929688 873.125 766.945312 881.402344 775.597656 L 878.882812 778.011719 C 870.882812 769.660156 861.578125 762.898438 851.222656 757.898438 Z M 826.742188 938.304688 C 838.082031 936.257812 848.84375 932.226562 858.746094 926.296875 L 860.550781 929.304688 C 850.273438 935.449219 839.109375 939.632812 827.355469 941.746094 Z M 783.28125 748.480469 C 791.835938 746.125 800.710938 744.933594 809.671875 744.933594 C 812.640625 744.933594 815.644531 745.0625 818.582031 745.328125 L 818.269531 748.816406 C 815.4375 748.5625 812.546875 748.433594 809.671875 748.433594 C 801.023438 748.433594 792.460938 749.578125 784.21875 751.855469 Z M 774.785156 937.007812 L 776.011719 933.738281 C 786.761719 937.773438 798.089844 939.816406 809.671875 939.816406 L 809.671875 943.316406 C 797.660156 943.316406 785.929688 941.191406 774.785156 937.007812 Z M 726.851562 789.464844 C 733.441406 779.503906 741.683594 770.882812 751.347656 763.859375 L 753.414062 766.691406 C 744.085938 773.472656 736.136719 781.78125 729.765625 791.394531 Z M 722.265625 891.128906 L 725.339844 889.464844 C 730.804688 899.597656 737.984375 908.585938 746.675781 916.175781 L 744.363281 918.8125 C 735.359375 910.941406 727.917969 901.621094 722.265625 891.128906 Z M 710.441406 844.125 C 710.441406 836.671875 711.273438 829.242188 712.902344 822.046875 L 716.324219 822.820312 C 713.792969 833.921875 713.285156 845.71875 714.796875 856.960938 L 711.332031 857.425781 C 710.742188 853.058594 710.441406 848.585938 710.441406 844.125 " fill-opacity="1" fill-rule="nonzero"/><path fill="#ffffff" d="M 363.859375 365.867188 L 367.070312 364.480469 C 371.765625 375.433594 374.410156 387.054688 374.933594 399.027344 L 371.441406 399.1875 C 370.933594 387.632812 368.378906 376.414062 363.859375 365.867188 Z M 350.636719 463.140625 C 357.847656 454.117188 363.304688 443.996094 366.863281 433.0625 L 370.191406 434.140625 C 366.503906 445.472656 360.84375 455.964844 353.363281 465.324219 Z M 317.359375 317.234375 L 318.871094 314.078125 C 329.609375 319.257812 339.261719 326.269531 347.539062 334.921875 L 345.007812 337.351562 C 337.019531 328.996094 327.714844 322.226562 317.359375 317.234375 Z M 292.867188 497.640625 C 304.207031 495.59375 314.976562 491.5625 324.871094 485.636719 L 326.675781 488.640625 C 316.398438 494.773438 305.246094 498.96875 293.492188 501.082031 Z M 249.40625 307.804688 C 257.972656 305.449219 266.847656 304.257812 275.792969 304.257812 C 278.777344 304.257812 281.769531 304.398438 284.707031 304.664062 L 284.394531 308.140625 C 281.5625 307.886719 278.671875 307.761719 275.792969 307.761719 C 267.160156 307.761719 258.59375 308.914062 250.34375 311.179688 Z M 240.910156 496.347656 L 242.148438 493.066406 C 252.886719 497.109375 264.210938 499.152344 275.792969 499.152344 L 275.792969 502.65625 C 263.796875 502.65625 252.054688 500.527344 240.910156 496.347656 Z M 192.976562 348.800781 C 199.566406 338.839844 207.808594 330.222656 217.480469 323.195312 L 219.539062 326.027344 C 210.210938 332.808594 202.257812 341.117188 195.902344 350.730469 Z M 188.390625 450.464844 L 191.476562 448.800781 C 196.929688 458.933594 204.109375 467.921875 212.800781 475.515625 L 210.488281 478.148438 C 201.484375 470.28125 194.054688 460.957031 188.390625 450.464844 Z M 176.566406 403.460938 C 176.566406 396.011719 177.398438 388.582031 179.027344 381.371094 L 182.449219 382.144531 C 179.929688 393.25 179.40625 405.035156 180.921875 416.300781 L 177.441406 416.761719 C 176.867188 412.394531 176.566406 407.910156 176.566406 403.460938 " fill-opacity="1" fill-rule="nonzero"/><path fill="#ffffff" d="M 637.285156 1006.449219 L 648.765625 993.242188 L 651.398438 995.53125 L 639.921875 1008.75 Z M 614.320312 1032.875 L 625.796875 1019.667969 L 628.445312 1021.957031 L 616.957031 1035.171875 Z M 591.363281 1059.296875 L 602.84375 1046.09375 L 605.476562 1048.390625 L 594 1061.597656 Z M 568.398438 1085.734375 L 579.875 1072.515625 L 582.523438 1074.804688 L 571.042969 1088.023438 Z M 545.441406 1112.148438 L 556.921875 1098.941406 L 559.566406 1101.226562 L 548.078125 1114.445312 Z M 528.796875 1131.304688 L 533.964844 1125.363281 L 536.601562 1127.652344 L 531.433594 1133.601562 L 528.796875 1131.304688 " fill-opacity="1" fill-rule="nonzero"/><path fill="#ffffff" d="M 862.285156 104.269531 L 867.230469 99.3125 L 912.597656 144.660156 L 868.109375 189.144531 L 863.152344 184.1875 L 902.691406 144.660156 L 862.285156 104.269531 " fill-opacity="1" fill-rule="nonzero"/><path fill="#ffffff" d="M 828.476562 104.269531 L 833.433594 99.3125 L 878.800781 144.660156 L 834.300781 189.144531 L 829.355469 184.1875 L 868.894531 144.660156 L 828.476562 104.269531 " fill-opacity="1" fill-rule="nonzero"/><path fill="#ffffff" d="M 794.679688 104.269531 L 799.625 99.3125 L 844.992188 144.660156 L 800.503906 189.144531 L 795.546875 184.1875 L 835.085938 144.660156 L 794.679688 104.269531 " fill-opacity="1" fill-rule="nonzero"/><path fill="#ffffff" d="M 572.570312 799.964844 L 594.820312 777.734375 L 597.292969 780.207031 L 577.527344 799.964844 L 597.734375 820.175781 L 595.261719 822.648438 L 572.570312 799.964844 " fill-opacity="1" fill-rule="nonzero"/><path fill="#ffffff" d="M 611.671875 799.964844 L 633.921875 777.734375 L 636.398438 780.207031 L 616.621094 799.964844 L 636.835938 820.175781 L 634.363281 822.648438 L 611.671875 799.964844 " fill-opacity="1" fill-rule="nonzero"/><path fill="#ffffff" d="M 631.230469 799.964844 L 653.46875 777.734375 L 655.941406 780.207031 L 636.175781 799.964844 L 656.382812 820.175781 L 653.90625 822.648438 L 631.230469 799.964844 " fill-opacity="1" fill-rule="nonzero"/><path fill="#ffffff" d="M 533.46875 799.964844 L 555.71875 777.734375 L 558.191406 780.207031 L 538.425781 799.964844 L 558.632812 820.175781 L 556.15625 822.648438 L 533.46875 799.964844 " fill-opacity="1" fill-rule="nonzero"/><path fill="#ffffff" d="M 553.023438 799.964844 L 575.273438 777.734375 L 577.75 780.207031 L 557.972656 799.964844 L 578.1875 820.175781 L 575.714844 822.648438 L 553.023438 799.964844 " fill-opacity="1" fill-rule="nonzero"/><path fill="#ffffff" d="M 592.128906 799.964844 L 614.367188 777.734375 L 616.839844 780.207031 L 597.074219 799.964844 L 617.277344 820.175781 L 614.804688 822.648438 L 592.128906 799.964844 " fill-opacity="1" fill-rule="nonzero"/><path fill="#ffffff" d="M 305.660156 110.890625 L 327.910156 88.660156 L 330.386719 91.132812 L 310.609375 110.890625 L 330.8125 131.097656 L 328.339844 133.570312 L 305.660156 110.890625 " fill-opacity="1" fill-rule="nonzero"/><path fill="#ffffff" d="M 344.765625 110.890625 L 367.015625 88.660156 L 369.488281 91.132812 L 349.710938 110.890625 L 369.914062 131.097656 L 367.441406 133.570312 L 344.765625 110.890625 " fill-opacity="1" fill-rule="nonzero"/><path fill="#ffffff" d="M 364.308594 110.890625 L 386.558594 88.660156 L 389.03125 91.132812 L 369.257812 110.890625 L 389.472656 131.097656 L 387 133.570312 L 364.308594 110.890625 " fill-opacity="1" fill-rule="nonzero"/><path fill="#ffffff" d="M 266.558594 110.890625 L 288.808594 88.660156 L 291.28125 91.132812 L 271.507812 110.890625 L 291.722656 131.097656 L 289.25 133.570312 L 266.558594 110.890625 " fill-opacity="1" fill-rule="nonzero"/><path fill="#ffffff" d="M 286.117188 110.890625 L 308.355469 88.660156 L 310.828125 91.132812 L 291.0625 110.890625 L 311.265625 131.097656 L 308.792969 133.570312 L 286.117188 110.890625 " fill-opacity="1" fill-rule="nonzero"/><path fill="#ffffff" d="M 325.207031 110.890625 L 347.457031 88.660156 L 349.929688 91.132812 L 330.164062 110.890625 L 350.371094 131.097656 L 347.894531 133.570312 L 325.207031 110.890625 " fill-opacity="1" fill-rule="nonzero"/><path fill="#ffffff" d="M 652.058594 508.824219 L 652.058594 470.246094 L 655.5625 470.246094 L 655.5625 508.824219 L 652.058594 508.824219 " fill-opacity="1" fill-rule="nonzero"/><path fill="#ffffff" d="M 634.511719 491.273438 L 634.511719 487.773438 L 673.105469 487.773438 L 673.105469 491.273438 L 634.511719 491.273438 " fill-opacity="1" fill-rule="nonzero"/><path fill="#ffffff" d="M 485.246094 335.558594 L 485.246094 296.992188 L 488.75 296.992188 L 488.75 335.558594 L 485.246094 335.558594 " fill-opacity="1" fill-rule="nonzero"/><path fill="#ffffff" d="M 467.710938 318.019531 L 467.710938 314.519531 L 506.292969 314.519531 L 506.292969 318.019531 L 467.710938 318.019531 " fill-opacity="1" fill-rule="nonzero"/><path fill="#ffffff" d="M 52.785156 293.246094 L 52.785156 254.667969 L 56.296875 254.667969 L 56.296875 293.246094 L 52.785156 293.246094 " fill-opacity="1" fill-rule="nonzero"/><path fill="#ffffff" d="M 35.25 275.707031 L 35.25 272.207031 L 73.832031 272.207031 L 73.832031 275.707031 L 35.25 275.707031 " fill-opacity="1" fill-rule="nonzero"/><path fill="#ffffff" d="M 399.792969 50.011719 L 399.792969 11.429688 L 403.296875 11.429688 L 403.296875 50.011719 L 399.792969 50.011719 " fill-opacity="1" fill-rule="nonzero"/><path fill="#ffffff" d="M 382.25 32.472656 L 382.25 28.96875 L 420.84375 28.96875 L 420.84375 32.472656 L 382.25 32.472656 " fill-opacity="1" fill-rule="nonzero"/><path fill="#ffffff" d="M 872.097656 1028.519531 L 872.097656 989.949219 L 875.601562 989.949219 L 875.601562 1028.519531 L 872.097656 1028.519531 " fill-opacity="1" fill-rule="nonzero"/><path fill="#ffffff" d="M 854.550781 1010.992188 L 854.550781 1007.488281 L 893.132812 1007.488281 L 893.132812 1010.992188 L 854.550781 1010.992188 " fill-opacity="1" fill-rule="nonzero"/><path fill="#ffffff" d="M 182.921875 940.890625 L 182.921875 937.390625 L 422.53125 937.390625 L 462.117188 897.816406 L 624.410156 897.816406 L 624.410156 901.320312 L 463.574219 901.320312 L 423.984375 940.890625 L 182.921875 940.890625 " fill-opacity="1" fill-rule="nonzero"/><path fill="#ffffff" d="M 443.09375 940.359375 L 473.976562 909.488281 L 590.09375 909.488281 L 590.09375 912.988281 L 475.433594 912.988281 L 451.554688 936.859375 L 526.820312 936.859375 L 526.820312 940.359375 L 443.09375 940.359375 " fill-opacity="1" fill-rule="nonzero"/><path fill="#ffffff" d="M 2.019531 862.703125 L 2.019531 859.203125 L 266.628906 859.203125 L 267.136719 859.722656 L 328.375 920.9375 L 417.546875 920.9375 L 440.167969 898.328125 L 442.640625 900.796875 L 419.003906 924.4375 L 326.929688 924.4375 L 265.171875 862.703125 L 2.019531 862.703125 " fill-opacity="1" fill-rule="nonzero"/><path fill="#ffffff" d="M 182.898438 939.148438 C 182.898438 934.074219 178.773438 929.949219 173.710938 929.949219 C 168.636719 929.949219 164.507812 934.074219 164.507812 939.148438 C 164.507812 944.207031 168.636719 948.332031 173.710938 948.332031 C 178.773438 948.332031 182.898438 944.207031 182.898438 939.148438 Z M 161.007812 939.148438 C 161.007812 932.144531 166.707031 926.449219 173.710938 926.449219 C 180.703125 926.449219 186.402344 932.144531 186.402344 939.148438 C 186.402344 946.136719 180.703125 951.832031 173.710938 951.832031 C 166.707031 951.832031 161.007812 946.136719 161.007812 939.148438 " fill-opacity="1" fill-rule="nonzero"/><path fill="#ffffff" d="M 119.859375 600.898438 C 119.859375 595.839844 115.730469 591.714844 110.667969 591.714844 C 105.59375 591.714844 101.480469 595.839844 101.480469 600.898438 C 101.480469 605.960938 105.59375 610.085938 110.667969 610.085938 C 115.730469 610.085938 119.859375 605.960938 119.859375 600.898438 Z M 97.976562 600.898438 C 97.976562 593.898438 103.664062 588.214844 110.667969 588.214844 C 117.664062 588.214844 123.359375 593.898438 123.359375 600.898438 C 123.359375 607.890625 117.664062 613.585938 110.667969 613.585938 C 103.664062 613.585938 97.976562 607.890625 97.976562 600.898438 " fill-opacity="1" fill-rule="nonzero"/><path fill="#ffffff" d="M 642.890625 899.5625 C 642.890625 894.5 638.765625 890.386719 633.703125 890.386719 C 628.628906 890.386719 624.503906 894.5 624.503906 899.5625 C 624.503906 904.636719 628.628906 908.757812 633.703125 908.757812 C 638.765625 908.757812 642.890625 904.636719 642.890625 899.5625 Z M 621.011719 899.5625 C 621.011719 892.574219 626.699219 886.875 633.703125 886.875 C 640.695312 886.875 646.394531 892.574219 646.394531 899.5625 C 646.394531 906.5625 640.695312 912.261719 633.703125 912.261719 C 626.699219 912.261719 621.011719 906.5625 621.011719 899.5625 " fill-opacity="1" fill-rule="nonzero"/><path fill="#ffffff" d="M 507.125 694.234375 C 507.125 689.160156 503.011719 685.046875 497.949219 685.046875 C 492.875 685.046875 488.75 689.160156 488.75 694.234375 C 488.75 699.292969 492.875 703.417969 497.949219 703.417969 C 503.011719 703.417969 507.125 699.292969 507.125 694.234375 Z M 485.246094 694.234375 C 485.246094 687.230469 490.945312 681.546875 497.949219 681.546875 C 504.941406 681.546875 510.640625 687.230469 510.640625 694.234375 C 510.640625 701.222656 504.941406 706.921875 497.949219 706.921875 C 490.945312 706.921875 485.246094 701.222656 485.246094 694.234375 " fill-opacity="1" fill-rule="nonzero"/><path fill="#ffffff" d="M 432.179688 657.320312 C 432.179688 652.257812 428.066406 648.132812 422.992188 648.132812 C 417.929688 648.132812 413.804688 652.257812 413.804688 657.320312 C 413.804688 662.390625 417.929688 666.503906 422.992188 666.503906 C 428.066406 666.503906 432.179688 662.390625 432.179688 657.320312 Z M 410.300781 657.320312 C 410.300781 650.328125 415.988281 644.632812 422.992188 644.632812 C 429.996094 644.632812 435.683594 650.328125 435.683594 657.320312 C 435.683594 664.320312 429.996094 670.003906 422.992188 670.003906 C 415.988281 670.003906 410.300781 664.320312 410.300781 657.320312 " fill-opacity="1" fill-rule="nonzero"/><path fill="#ffffff" d="M 548.378906 938.605469 C 548.378906 933.542969 544.253906 929.417969 539.191406 929.417969 C 534.117188 929.417969 530 933.542969 530 938.605469 C 530 943.675781 534.117188 947.789062 539.191406 947.789062 C 544.253906 947.789062 548.378906 943.675781 548.378906 938.605469 Z M 526.488281 938.605469 C 526.488281 931.613281 532.183594 925.917969 539.191406 925.917969 C 546.183594 925.917969 551.878906 931.613281 551.878906 938.605469 C 551.878906 945.605469 546.183594 951.289062 539.191406 951.289062 C 532.183594 951.289062 526.488281 945.605469 526.488281 938.605469 " fill-opacity="1" fill-rule="nonzero"/><path fill="#ffffff" d="M 0.261719 860.960938 C 0.261719 855.886719 -3.851562 851.773438 -8.914062 851.773438 C -13.988281 851.773438 -18.113281 855.886719 -18.113281 860.960938 C -18.113281 866.019531 -13.988281 870.144531 -8.914062 870.144531 C -3.851562 870.144531 0.261719 866.019531 0.261719 860.960938 Z M -21.617188 860.960938 C -21.617188 853.957031 -15.917969 848.273438 -8.914062 848.273438 C -1.921875 848.273438 3.777344 853.957031 3.777344 860.960938 C 3.777344 867.960938 -1.921875 873.648438 -8.914062 873.648438 C -15.917969 873.648438 -21.617188 867.960938 -21.617188 860.960938 " fill-opacity="1" fill-rule="nonzero"/><path fill="#ffffff" d="M 373.164062 911.230469 L 373.164062 891.820312 L 376.664062 891.820312 L 376.664062 911.230469 L 373.164062 911.230469 " fill-opacity="1" fill-rule="nonzero"/><path fill="#ffffff" d="M 366.160156 911.230469 L 366.160156 891.820312 L 369.660156 891.820312 L 369.660156 911.230469 L 366.160156 911.230469 " fill-opacity="1" fill-rule="nonzero"/><path fill="#ffffff" d="M 359.15625 911.230469 L 359.15625 891.820312 L 362.65625 891.820312 L 362.65625 911.230469 L 359.15625 911.230469 " fill-opacity="1" fill-rule="nonzero"/><path fill="#ffffff" d="M 307.753906 630.0625 L 307.753906 626.5625 L 327.171875 626.5625 L 327.171875 630.0625 L 307.753906 630.0625 " fill-opacity="1" fill-rule="nonzero"/><path fill="#ffffff" d="M 307.753906 623.070312 L 307.753906 619.558594 L 327.171875 619.558594 L 327.171875 623.070312 L 307.753906 623.070312 " fill-opacity="1" fill-rule="nonzero"/><path fill="#ffffff" d="M 307.753906 616.058594 L 307.753906 612.558594 L 327.171875 612.558594 L 327.171875 616.058594 L 307.753906 616.058594 " fill-opacity="1" fill-rule="nonzero"/><path fill="#ffffff" d="M 173.210938 673.066406 L 173.210938 669.566406 L 192.632812 669.566406 L 192.632812 673.066406 L 173.210938 673.066406 " fill-opacity="1" fill-rule="nonzero"/><path fill="#ffffff" d="M 173.210938 666.078125 L 173.210938 662.574219 L 192.632812 662.574219 L 192.632812 666.078125 L 173.210938 666.078125 " fill-opacity="1" fill-rule="nonzero"/><path fill="#ffffff" d="M 173.210938 659.074219 L 173.210938 655.574219 L 192.632812 655.574219 L 192.632812 659.074219 L 173.210938 659.074219 " fill-opacity="1" fill-rule="nonzero"/><path fill="#ffffff" d="M 767.066406 683.730469 L 767.066406 664.320312 L 770.566406 664.320312 L 770.566406 683.730469 L 767.066406 683.730469 " fill-opacity="1" fill-rule="nonzero"/><path fill="#ffffff" d="M 760.0625 683.730469 L 760.0625 664.320312 L 763.5625 664.320312 L 763.5625 683.730469 L 760.0625 683.730469 " fill-opacity="1" fill-rule="nonzero"/><path fill="#ffffff" d="M 753.066406 683.730469 L 753.066406 664.320312 L 756.570312 664.320312 L 756.570312 683.730469 L 753.066406 683.730469 " fill-opacity="1" fill-rule="nonzero"/><path fill="#ffffff" d="M 610.574219 175.0625 L 610.574219 155.648438 L 614.078125 155.648438 L 614.078125 175.0625 L 610.574219 175.0625 " fill-opacity="1" fill-rule="nonzero"/><path fill="#ffffff" d="M 603.570312 175.0625 L 603.570312 155.648438 L 607.074219 155.648438 L 607.074219 175.0625 L 603.570312 175.0625 " fill-opacity="1" fill-rule="nonzero"/><path fill="#ffffff" d="M 596.566406 175.0625 L 596.566406 155.648438 L 600.066406 155.648438 L 600.066406 175.0625 L 596.566406 175.0625 " fill-opacity="1" fill-rule="nonzero"/><path fill="#ffffff" d="M 197.890625 206.070312 L 197.890625 186.660156 L 201.390625 186.660156 L 201.390625 206.070312 L 197.890625 206.070312 " fill-opacity="1" fill-rule="nonzero"/><path fill="#ffffff" d="M 190.886719 206.070312 L 190.886719 186.660156 L 194.386719 186.660156 L 194.386719 206.070312 L 190.886719 206.070312 " fill-opacity="1" fill-rule="nonzero"/><path fill="#ffffff" d="M 183.882812 206.070312 L 183.882812 186.660156 L 187.382812 186.660156 L 187.382812 206.070312 L 183.882812 206.070312 " fill-opacity="1" fill-rule="nonzero"/><path fill="#ffffff" d="M 66.792969 891.820312 L 66.792969 872.410156 L 70.296875 872.410156 L 70.296875 891.820312 L 66.792969 891.820312 " fill-opacity="1" fill-rule="nonzero"/><path fill="#ffffff" d="M 59.789062 891.820312 L 59.789062 872.410156 L 63.292969 872.410156 L 63.292969 891.820312 L 59.789062 891.820312 " fill-opacity="1" fill-rule="nonzero"/><path fill="#ffffff" d="M 52.785156 891.820312 L 52.785156 872.410156 L 56.296875 872.410156 L 56.296875 891.820312 L 52.785156 891.820312 " fill-opacity="1" fill-rule="nonzero"/><path fill="#ffffff" d="M 588.347656 918.0625 L 588.347656 904.402344 L 591.851562 904.402344 L 591.851562 918.0625 L 588.347656 918.0625 " fill-opacity="1" fill-rule="nonzero"/><path fill="#ffffff" d="M 148.5 592.09375 L 148.5 578.4375 L 152.003906 578.4375 L 152.003906 592.09375 L 148.5 592.09375 " fill-opacity="1" fill-rule="nonzero"/><path fill="#ffffff" d="M 435.335938 895.96875 L 437.808594 893.496094 L 447.472656 903.15625 L 445 905.628906 L 435.335938 895.96875 " fill-opacity="1" fill-rule="nonzero"/><path fill="#ffffff" d="M 150.246094 587.023438 L 150.246094 583.523438 L 348.671875 583.523438 L 349.191406 584.03125 L 416.183594 651 L 413.710938 653.472656 L 347.226562 587.023438 L 150.246094 587.023438 " fill-opacity="1" fill-rule="nonzero"/><path fill="#ffffff" d="M 122.238281 602.644531 L 122.238281 599.15625 L 284.347656 599.15625 L 284.347656 692.476562 L 486.378906 692.476562 L 486.378906 695.980469 L 280.84375 695.980469 L 280.84375 602.644531 L 122.238281 602.644531 " fill-opacity="1" fill-rule="nonzero"/><path fill="#ffffff" d="M 262.871094 674.027344 L 262.871094 618.75 L 266.375 618.75 L 266.375 674.027344 L 262.871094 674.027344 " fill-opacity="1" fill-rule="nonzero"/><path fill="#ffffff" d="M 173.710938 648.132812 L 173.710938 644.644531 L 264.628906 644.644531 L 264.628906 648.132812 L 173.710938 648.132812 " fill-opacity="1" fill-rule="nonzero"/><path fill="#ffffff" d="M 680.308594 404.871094 C 680.308594 399.800781 676.191406 395.6875 671.117188 395.6875 C 666.042969 395.6875 661.929688 399.800781 661.929688 404.871094 C 661.929688 409.933594 666.042969 414.058594 671.117188 414.058594 C 676.191406 414.058594 680.308594 409.933594 680.308594 404.871094 Z M 658.425781 404.871094 C 658.425781 397.871094 664.125 392.1875 671.117188 392.1875 C 678.109375 392.1875 683.808594 397.871094 683.808594 404.871094 C 683.808594 411.863281 678.109375 417.558594 671.117188 417.558594 C 664.125 417.558594 658.425781 411.863281 658.425781 404.871094 " fill-opacity="1" fill-rule="nonzero"/><path fill="#ffffff" d="M 1067.585938 498.207031 C 1067.585938 493.132812 1063.460938 489.019531 1058.398438 489.019531 C 1053.324219 489.019531 1049.207031 493.132812 1049.207031 498.207031 C 1049.207031 503.265625 1053.324219 507.390625 1058.398438 507.390625 C 1063.460938 507.390625 1067.585938 503.265625 1067.585938 498.207031 Z M 1045.707031 498.207031 C 1045.707031 491.203125 1051.394531 485.519531 1058.398438 485.519531 C 1065.390625 485.519531 1071.089844 491.203125 1071.089844 498.207031 C 1071.089844 505.195312 1065.390625 510.894531 1058.398438 510.894531 C 1051.394531 510.894531 1045.707031 505.195312 1045.707031 498.207031 " fill-opacity="1" fill-rule="nonzero"/><path fill="#ffffff" d="M 992.628906 461.292969 C 992.628906 456.230469 988.515625 452.105469 983.441406 452.105469 C 978.378906 452.105469 974.25 456.230469 974.25 461.292969 C 974.25 466.363281 978.378906 470.476562 983.441406 470.476562 C 988.515625 470.476562 992.628906 466.363281 992.628906 461.292969 Z M 970.75 461.292969 C 970.75 454.300781 976.449219 448.605469 983.441406 448.605469 C 990.445312 448.605469 996.132812 454.300781 996.132812 461.292969 C 996.132812 468.292969 990.445312 473.976562 983.441406 473.976562 C 976.449219 473.976562 970.75 468.292969 970.75 461.292969 " fill-opacity="1" fill-rule="nonzero"/><path fill="#ffffff" d="M 897.433594 475.421875 L 897.433594 471.921875 L 916.863281 471.921875 L 916.863281 475.421875 L 897.433594 475.421875 " fill-opacity="1" fill-rule="nonzero"/><path fill="#ffffff" d="M 897.433594 468.421875 L 897.433594 464.917969 L 916.863281 464.917969 L 916.863281 468.421875 L 897.433594 468.421875 " fill-opacity="1" fill-rule="nonzero"/><path fill="#ffffff" d="M 897.433594 461.417969 L 897.433594 457.929688 L 916.863281 457.929688 L 916.863281 461.417969 L 897.433594 461.417969 " fill-opacity="1" fill-rule="nonzero"/><path fill="#ffffff" d="M 708.9375 396.066406 L 708.9375 382.410156 L 712.453125 382.410156 L 712.453125 396.066406 L 708.9375 396.066406 " fill-opacity="1" fill-rule="nonzero"/><path fill="#ffffff" d="M 710.695312 390.996094 L 710.695312 387.484375 L 909.132812 387.484375 L 909.640625 388.003906 L 976.621094 454.972656 L 974.148438 457.445312 L 907.675781 390.996094 L 710.695312 390.996094 " fill-opacity="1" fill-rule="nonzero"/><path fill="#ffffff" d="M 682.6875 406.617188 L 682.6875 403.117188 L 844.796875 403.117188 L 844.796875 496.449219 L 1046.828125 496.449219 L 1046.828125 499.953125 L 841.292969 499.953125 L 841.292969 406.617188 L 682.6875 406.617188 " fill-opacity="1" fill-rule="nonzero"/></svg>