<svg xmlns="http://www.w3.org/2000/svg" xmlns:xlink="http://www.w3.org/1999/xlink" width="500" zoomAndPan="magnify" viewBox="0 0 375 374.999991" height="500" preserveAspectRatio="xMidYMid meet" version="1.0"><path fill="#b4c5e4" d="M 318.558594 347.046875 C 311.765625 347.046875 306.246094 341.53125 306.246094 334.742188 C 306.246094 327.9375 311.765625 322.4375 318.558594 322.4375 C 325.351562 322.4375 330.871094 327.9375 330.871094 334.742188 C 330.871094 341.53125 325.351562 347.046875 318.558594 347.046875 Z M 342.492188 320.496094 C 342.492188 320.496094 149.097656 123.757812 151.644531 118.472656 C 159.222656 102.839844 161.671875 79.289062 145.039062 61.757812 L 111.632812 26.539062 C 96.871094 10.957031 73.332031 5.046875 54.269531 11.613281 C 54.269531 11.613281 101.683594 59.265625 103.03125 67.9375 C 103.957031 73.800781 68.132812 107.542969 62.03125 106.082031 C 55.367188 104.503906 8.773438 56.257812 8.773438 56.257812 C 0.0898438 75.320312 5.230469 96.660156 20.53125 112.800781 L 54.703125 148.84375 C 71.375 166.417969 98.988281 161.421875 112.417969 157.964844 C 116.746094 156.847656 302.785156 358.089844 302.785156 358.089844 C 313.171875 369.0625 330.480469 369.527344 341.449219 359.132812 C 352.414062 348.753906 352.878906 331.457031 342.492188 320.496094 " fill-opacity="1" fill-rule="nonzero"/><path fill="#5ecf58" d="M 53.730469 345.292969 C 46.921875 345.484375 41.257812 340.113281 41.085938 333.324219 C 40.898438 326.535156 46.257812 320.875 53.066406 320.699219 C 59.859375 320.511719 65.523438 325.867188 65.699219 332.671875 C 65.886719 339.460938 60.527344 345.105469 53.730469 345.292969 Z M 367.769531 62.410156 C 367.769531 62.410156 321.371094 111.0625 312.734375 112.640625 C 306.898438 113.726562 272.160156 78.839844 273.460938 72.699219 C 274.882812 66.011719 321.875 18.160156 321.875 18.160156 C 302.582031 10.007812 281.359375 15.714844 265.625 31.429688 L 230.496094 66.535156 C 213.359375 83.660156 219.109375 111.105469 222.933594 124.421875 C 224.152344 128.722656 27.828125 319.960938 27.828125 319.960938 C 17.144531 330.644531 17.152344 347.945312 27.828125 358.625 C 38.519531 369.296875 55.832031 369.296875 66.523438 358.625 C 66.523438 358.625 258.136719 160.148438 263.480469 162.550781 C 279.328125 169.703125 302.941406 171.511719 320.050781 154.429688 L 354.371094 120.125 C 369.566406 104.9375 374.839844 81.269531 367.769531 62.410156 " fill-opacity="1" fill-rule="nonzero"/></svg>