<svg xmlns="http://www.w3.org/2000/svg" xmlns:xlink="http://www.w3.org/1999/xlink" width="500" zoomAndPan="magnify" viewBox="0 0 375 374.999991" height="500" preserveAspectRatio="xMidYMid meet" version="1.0"><defs><clipPath id="id1"><path d="M 341 127 L 371.226562 127 L 371.226562 157 L 341 157 Z M 341 127 " clip-rule="nonzero"/></clipPath><clipPath id="id2"><path d="M 127 2.378906 L 158 2.378906 L 158 33 L 127 33 Z M 127 2.378906 " clip-rule="nonzero"/></clipPath><clipPath id="id3"><path d="M 3.726562 218 L 34 218 L 34 249 L 3.726562 249 Z M 3.726562 218 " clip-rule="nonzero"/></clipPath><clipPath id="id4"><path d="M 217 343 L 248 343 L 248 372.878906 L 217 372.878906 Z M 217 343 " clip-rule="nonzero"/></clipPath></defs><path fill="#ffbd4a" d="M 183.035156 268.804688 C 160.480469 268.804688 121.707031 267.203125 115.480469 256.484375 C 110.078125 247.183594 107.96875 211.546875 107.804688 183.855469 C 107.695312 165.449219 108.292969 121.871094 116.175781 114.75 C 124.734375 107.019531 177.445312 106.628906 187.925781 106.628906 C 202.113281 106.628906 249.109375 107.207031 258.023438 114.660156 C 266.515625 121.757812 267.328125 161.765625 267.054688 184.980469 C 266.789062 207.503906 264.730469 247.953125 258.675781 256.71875 C 250.566406 268.464844 189.921875 268.804688 183.035156 268.804688 Z M 187.925781 113.8125 C 146.542969 113.8125 123.867188 117.476562 120.984375 120.082031 C 118.527344 122.390625 114.722656 141.777344 114.980469 183.960938 C 115.183594 217.019531 118.066406 246.644531 121.683594 252.871094 C 123.648438 256.253906 142.042969 261.617188 183.035156 261.617188 C 223.945312 261.617188 250.238281 256.304688 252.773438 252.632812 C 255.929688 248.0625 259.453125 221.472656 259.878906 184.894531 C 260.378906 142.089844 256.1875 122.476562 253.425781 120.167969 C 249.734375 117.089844 225.527344 113.8125 187.925781 113.8125 Z M 187.925781 113.8125 " fill-opacity="1" fill-rule="nonzero"/><path fill="#ffbd4a" d="M 307.9375 215.515625 L 263.507812 215.515625 C 261.523438 215.515625 259.917969 213.910156 259.917969 211.921875 C 259.917969 209.941406 261.523438 208.332031 263.507812 208.332031 L 307.9375 208.332031 C 309.917969 208.332031 311.523438 209.9375 311.523438 211.921875 C 311.523438 213.90625 309.917969 215.515625 307.9375 215.515625 Z M 307.9375 215.515625 " fill-opacity="1" fill-rule="nonzero"/><path fill="#ffbd4a" d="M 307.9375 144.78125 L 263.507812 144.78125 C 261.523438 144.78125 259.917969 143.175781 259.917969 141.191406 C 259.917969 139.207031 261.523438 137.597656 263.507812 137.597656 L 307.9375 137.597656 C 309.917969 137.597656 311.523438 139.207031 311.523438 141.191406 C 311.523438 143.175781 309.917969 144.78125 307.9375 144.78125 Z M 307.9375 144.78125 " fill-opacity="1" fill-rule="nonzero"/><path fill="#ffbd4a" d="M 290.757812 168.738281 L 266.070312 168.738281 C 264.085938 168.738281 262.480469 167.132812 262.480469 165.148438 C 262.480469 163.164062 264.085938 161.554688 266.070312 161.554688 L 290.757812 161.554688 C 292.742188 161.554688 294.347656 163.164062 294.347656 165.148438 C 294.347656 167.132812 292.742188 168.738281 290.757812 168.738281 Z M 290.757812 168.738281 " fill-opacity="1" fill-rule="nonzero"/><path fill="#ffbd4a" d="M 312.992188 194.109375 L 263.507812 194.109375 C 261.523438 194.109375 259.917969 192.5 259.917969 190.519531 C 259.917969 188.535156 261.523438 186.925781 263.507812 186.925781 L 310.058594 186.925781 L 346.9375 150.609375 C 348.351562 149.21875 350.625 149.238281 352.011719 150.648438 C 353.402344 152.066406 353.382812 154.339844 351.972656 155.730469 Z M 312.992188 194.109375 " fill-opacity="1" fill-rule="nonzero"/><path fill="#ffbd4a" d="M 319.214844 236.335938 L 263.507812 236.335938 C 261.523438 236.335938 259.917969 234.730469 259.917969 232.746094 C 259.917969 230.761719 261.523438 229.152344 263.507812 229.152344 L 319.214844 229.152344 C 321.195312 229.152344 322.800781 230.761719 322.800781 232.746094 C 322.800781 234.730469 321.195312 236.335938 319.214844 236.335938 Z M 319.214844 236.335938 " fill-opacity="1" fill-rule="nonzero"/><path fill="#ffbd4a" d="M 330.488281 247.625 C 322.292969 247.625 315.625 240.949219 315.625 232.746094 C 315.625 224.546875 322.292969 217.871094 330.488281 217.871094 C 338.683594 217.871094 345.351562 224.546875 345.351562 232.746094 C 345.351562 240.949219 338.683594 247.625 330.488281 247.625 Z M 330.488281 225.050781 C 326.25 225.050781 322.800781 228.503906 322.800781 232.746094 C 322.800781 236.992188 326.25 240.441406 330.488281 240.441406 C 334.730469 240.441406 338.175781 236.992188 338.175781 232.746094 C 338.179688 228.503906 334.730469 225.050781 330.488281 225.050781 Z M 330.488281 225.050781 " fill-opacity="1" fill-rule="nonzero"/><g clip-path="url(#id1)"><path fill="#ffbd4a" d="M 356.203125 156.996094 C 348.003906 156.996094 341.335938 150.320312 341.335938 142.117188 C 341.335938 133.917969 348.003906 127.242188 356.203125 127.242188 C 364.398438 127.242188 371.066406 133.917969 371.066406 142.117188 C 371.066406 150.320312 364.398438 156.996094 356.203125 156.996094 Z M 356.203125 134.425781 C 351.960938 134.425781 348.511719 137.875 348.511719 142.121094 C 348.511719 146.363281 351.960938 149.816406 356.203125 149.816406 C 360.441406 149.816406 363.890625 146.363281 363.890625 142.121094 C 363.890625 137.875 360.441406 134.425781 356.203125 134.425781 Z M 356.203125 134.425781 " fill-opacity="1" fill-rule="nonzero"/></g><path fill="#ffbd4a" d="M 211.914062 113.683594 C 209.929688 113.683594 208.324219 112.074219 208.324219 110.089844 L 208.324219 65.621094 C 208.324219 63.640625 209.929688 62.03125 211.914062 62.03125 C 213.894531 62.03125 215.5 63.636719 215.5 65.621094 L 215.5 110.089844 C 215.5 112.074219 213.894531 113.683594 211.914062 113.683594 Z M 211.914062 113.683594 " fill-opacity="1" fill-rule="nonzero"/><path fill="#ffbd4a" d="M 141.242188 113.683594 C 139.261719 113.683594 137.65625 112.074219 137.65625 110.089844 L 137.65625 65.621094 C 137.65625 63.640625 139.261719 62.03125 141.242188 62.03125 C 143.226562 62.03125 144.832031 63.636719 144.832031 65.621094 L 144.832031 110.089844 C 144.828125 112.074219 143.222656 113.683594 141.242188 113.683594 Z M 141.242188 113.683594 " fill-opacity="1" fill-rule="nonzero"/><path fill="#ffbd4a" d="M 165.179688 111.117188 C 163.195312 111.117188 161.589844 109.511719 161.589844 107.527344 L 161.589844 82.8125 C 161.589844 80.832031 163.195312 79.222656 165.179688 79.222656 C 167.160156 79.222656 168.765625 80.832031 168.765625 82.8125 L 168.765625 107.527344 C 168.765625 109.507812 167.160156 111.117188 165.179688 111.117188 Z M 165.179688 111.117188 " fill-opacity="1" fill-rule="nonzero"/><path fill="#ffbd4a" d="M 190.527344 113.683594 C 188.546875 113.683594 186.9375 112.074219 186.9375 110.089844 L 186.9375 63.5 L 150.652344 26.585938 C 149.261719 25.171875 149.28125 22.898438 150.695312 21.507812 C 152.105469 20.117188 154.378906 20.136719 155.769531 21.550781 L 194.117188 60.558594 L 194.117188 110.089844 C 194.113281 112.074219 192.507812 113.683594 190.527344 113.683594 Z M 190.527344 113.683594 " fill-opacity="1" fill-rule="nonzero"/><path fill="#ffbd4a" d="M 232.71875 113.683594 C 230.738281 113.683594 229.132812 112.074219 229.132812 110.089844 L 229.132812 54.335938 C 229.132812 52.351562 230.738281 50.742188 232.71875 50.742188 C 234.699219 50.742188 236.308594 52.351562 236.308594 54.335938 L 236.308594 110.089844 C 236.304688 112.074219 234.699219 113.683594 232.71875 113.683594 Z M 232.71875 113.683594 " fill-opacity="1" fill-rule="nonzero"/><path fill="#ffbd4a" d="M 232.71875 57.929688 C 224.523438 57.929688 217.855469 51.253906 217.855469 43.050781 C 217.855469 34.847656 224.523438 28.175781 232.71875 28.175781 C 240.914062 28.175781 247.585938 34.847656 247.585938 43.050781 C 247.582031 51.253906 240.914062 57.929688 232.71875 57.929688 Z M 232.71875 35.355469 C 228.480469 35.355469 225.03125 38.808594 225.03125 43.050781 C 225.03125 47.292969 228.480469 50.746094 232.71875 50.746094 C 236.960938 50.746094 240.40625 47.292969 240.40625 43.050781 C 240.40625 38.808594 236.960938 35.355469 232.71875 35.355469 Z M 232.71875 35.355469 " fill-opacity="1" fill-rule="nonzero"/><g clip-path="url(#id2)"><path fill="#ffbd4a" d="M 142.167969 32.195312 C 133.972656 32.195312 127.304688 25.519531 127.304688 17.316406 C 127.304688 9.113281 133.972656 2.441406 142.167969 2.441406 C 150.363281 2.441406 157.03125 9.113281 157.03125 17.316406 C 157.03125 25.519531 150.363281 32.195312 142.167969 32.195312 Z M 142.167969 9.621094 C 137.929688 9.621094 134.480469 13.074219 134.480469 17.316406 C 134.480469 21.558594 137.929688 25.011719 142.167969 25.011719 C 146.410156 25.011719 149.855469 21.558594 149.855469 17.316406 C 149.855469 13.074219 146.410156 9.621094 142.167969 9.621094 Z M 142.167969 9.621094 " fill-opacity="1" fill-rule="nonzero"/></g><path fill="#ffbd4a" d="M 111.445312 167.074219 L 67.015625 167.074219 C 65.035156 167.074219 63.425781 165.464844 63.425781 163.480469 C 63.425781 161.496094 65.035156 159.890625 67.015625 159.890625 L 111.445312 159.890625 C 113.429688 159.890625 115.035156 161.496094 115.035156 163.480469 C 115.035156 165.464844 113.425781 167.074219 111.445312 167.074219 Z M 111.445312 167.074219 " fill-opacity="1" fill-rule="nonzero"/><path fill="#ffbd4a" d="M 111.445312 237.804688 L 67.015625 237.804688 C 65.035156 237.804688 63.425781 236.195312 63.425781 234.210938 C 63.425781 232.226562 65.035156 230.621094 67.015625 230.621094 L 111.445312 230.621094 C 113.429688 230.621094 115.035156 232.226562 115.035156 234.210938 C 115.035156 236.195312 113.425781 237.804688 111.445312 237.804688 Z M 111.445312 237.804688 " fill-opacity="1" fill-rule="nonzero"/><path fill="#ffbd4a" d="M 108.882812 213.847656 L 84.191406 213.847656 C 82.210938 213.847656 80.601562 212.238281 80.601562 210.253906 C 80.601562 208.269531 82.210938 206.664062 84.191406 206.664062 L 108.882812 206.664062 C 110.863281 206.664062 112.472656 208.269531 112.472656 210.253906 C 112.472656 212.238281 110.863281 213.847656 108.882812 213.847656 Z M 108.882812 213.847656 " fill-opacity="1" fill-rule="nonzero"/><path fill="#ffbd4a" d="M 25.496094 225.824219 C 24.570312 225.824219 23.644531 225.464844 22.9375 224.75 C 21.550781 223.335938 21.570312 221.0625 22.980469 219.671875 L 61.957031 181.296875 L 111.445312 181.296875 C 113.429688 181.296875 115.035156 182.902344 115.035156 184.886719 C 115.035156 186.871094 113.429688 188.476562 111.445312 188.476562 L 64.894531 188.476562 L 28.015625 224.792969 C 27.3125 225.480469 26.40625 225.824219 25.496094 225.824219 Z M 25.496094 225.824219 " fill-opacity="1" fill-rule="nonzero"/><path fill="#ffbd4a" d="M 111.445312 146.25 L 55.738281 146.25 C 53.757812 146.25 52.152344 144.640625 52.152344 142.65625 C 52.152344 140.671875 53.757812 139.066406 55.738281 139.066406 L 111.445312 139.066406 C 113.429688 139.066406 115.035156 140.671875 115.035156 142.65625 C 115.035156 144.640625 113.425781 146.25 111.445312 146.25 Z M 111.445312 146.25 " fill-opacity="1" fill-rule="nonzero"/><path fill="#ffbd4a" d="M 44.460938 157.535156 C 36.265625 157.535156 29.597656 150.859375 29.597656 142.65625 C 29.597656 134.453125 36.265625 127.78125 44.460938 127.78125 C 52.660156 127.78125 59.328125 134.453125 59.328125 142.65625 C 59.328125 150.859375 52.660156 157.535156 44.460938 157.535156 Z M 44.460938 134.960938 C 40.222656 134.960938 36.773438 138.414062 36.773438 142.65625 C 36.773438 146.898438 40.222656 150.351562 44.460938 150.351562 C 48.699219 150.351562 52.152344 146.898438 52.152344 142.65625 C 52.152344 138.414062 48.699219 134.960938 44.460938 134.960938 Z M 44.460938 134.960938 " fill-opacity="1" fill-rule="nonzero"/><g clip-path="url(#id3)"><path fill="#ffbd4a" d="M 18.75 248.160156 C 10.554688 248.160156 3.882812 241.488281 3.882812 233.285156 C 3.882812 225.082031 10.550781 218.40625 18.75 218.40625 C 26.945312 218.40625 33.613281 225.082031 33.613281 233.285156 C 33.613281 241.488281 26.945312 248.160156 18.75 248.160156 Z M 18.75 225.589844 C 14.507812 225.589844 11.0625 229.042969 11.0625 233.285156 C 11.0625 237.527344 14.507812 240.980469 18.75 240.980469 C 22.988281 240.980469 26.4375 237.527344 26.4375 233.285156 C 26.4375 229.042969 22.988281 225.589844 18.75 225.589844 Z M 18.75 225.589844 " fill-opacity="1" fill-rule="nonzero"/></g><path fill="#ffbd4a" d="M 163.039062 313.371094 C 161.054688 313.371094 159.449219 311.765625 159.449219 309.78125 L 159.449219 265.3125 C 159.449219 263.328125 161.054688 261.71875 163.039062 261.71875 C 165.019531 261.71875 166.628906 263.328125 166.628906 265.3125 L 166.628906 309.78125 C 166.625 311.765625 165.019531 313.371094 163.039062 313.371094 Z M 163.039062 313.371094 " fill-opacity="1" fill-rule="nonzero"/><path fill="#ffbd4a" d="M 233.707031 313.371094 C 231.726562 313.371094 230.121094 311.765625 230.121094 309.78125 L 230.121094 265.3125 C 230.121094 263.328125 231.726562 261.71875 233.707031 261.71875 C 235.691406 261.71875 237.296875 263.328125 237.296875 265.3125 L 237.296875 309.78125 C 237.296875 311.765625 235.691406 313.371094 233.707031 313.371094 Z M 233.707031 313.371094 " fill-opacity="1" fill-rule="nonzero"/><path fill="#ffbd4a" d="M 209.773438 296.179688 C 207.789062 296.179688 206.183594 294.574219 206.183594 292.589844 L 206.183594 267.878906 C 206.183594 265.894531 207.789062 264.285156 209.773438 264.285156 C 211.753906 264.285156 213.359375 265.894531 213.359375 267.878906 L 213.359375 292.589844 C 213.359375 294.570312 211.753906 296.179688 209.773438 296.179688 Z M 209.773438 296.179688 " fill-opacity="1" fill-rule="nonzero"/><path fill="#ffbd4a" d="M 221.742188 354.925781 C 220.8125 354.925781 219.886719 354.566406 219.183594 353.855469 L 180.835938 314.84375 L 180.835938 265.3125 C 180.835938 263.328125 182.441406 261.722656 184.421875 261.722656 C 186.40625 261.722656 188.011719 263.328125 188.011719 265.3125 L 188.011719 311.902344 L 224.296875 348.816406 C 225.6875 350.230469 225.667969 352.503906 224.253906 353.894531 C 223.558594 354.582031 222.648438 354.925781 221.742188 354.925781 Z M 221.742188 354.925781 " fill-opacity="1" fill-rule="nonzero"/><path fill="#ffbd4a" d="M 142.230469 324.660156 C 140.25 324.660156 138.644531 323.050781 138.644531 321.066406 L 138.644531 265.3125 C 138.644531 263.328125 140.25 261.71875 142.230469 261.71875 C 144.214844 261.71875 145.820312 263.328125 145.820312 265.3125 L 145.820312 321.066406 C 145.820312 323.050781 144.214844 324.660156 142.230469 324.660156 Z M 142.230469 324.660156 " fill-opacity="1" fill-rule="nonzero"/><path fill="#ffbd4a" d="M 142.230469 347.230469 C 134.035156 347.230469 127.367188 340.554688 127.367188 332.355469 C 127.367188 324.152344 134.035156 317.476562 142.230469 317.476562 C 150.429688 317.476562 157.097656 324.152344 157.097656 332.355469 C 157.097656 340.554688 150.429688 347.230469 142.230469 347.230469 Z M 142.230469 324.660156 C 137.992188 324.660156 134.542969 328.109375 134.542969 332.355469 C 134.542969 336.597656 137.992188 340.050781 142.230469 340.050781 C 146.472656 340.050781 149.921875 336.597656 149.921875 332.355469 C 149.921875 328.109375 146.472656 324.660156 142.230469 324.660156 Z M 142.230469 324.660156 " fill-opacity="1" fill-rule="nonzero"/><g clip-path="url(#id4)"><path fill="#ffbd4a" d="M 232.78125 372.964844 C 224.585938 372.964844 217.917969 366.292969 217.917969 358.089844 C 217.917969 349.886719 224.585938 343.210938 232.78125 343.210938 C 240.980469 343.210938 247.648438 349.886719 247.648438 358.089844 C 247.648438 366.292969 240.980469 372.964844 232.78125 372.964844 Z M 232.78125 350.394531 C 228.542969 350.394531 225.09375 353.847656 225.09375 358.089844 C 225.09375 362.332031 228.542969 365.785156 232.78125 365.785156 C 237.019531 365.785156 240.472656 362.332031 240.472656 358.089844 C 240.472656 353.847656 237.023438 350.394531 232.78125 350.394531 Z M 232.78125 350.394531 " fill-opacity="1" fill-rule="nonzero"/></g><path fill="#5ecf58" d="M 185.71875 202.539062 C 177.34375 202.539062 170.53125 195.71875 170.53125 187.335938 C 170.53125 178.953125 177.34375 172.136719 185.71875 172.136719 C 194.09375 172.136719 200.90625 178.953125 200.90625 187.335938 C 200.90625 195.71875 194.09375 202.539062 185.71875 202.539062 Z M 185.71875 179.316406 C 181.300781 179.316406 177.707031 182.917969 177.707031 187.335938 C 177.707031 191.757812 181.300781 195.355469 185.71875 195.355469 C 190.136719 195.355469 193.730469 191.757812 193.730469 187.335938 C 193.730469 182.914062 190.136719 179.316406 185.71875 179.316406 Z M 185.71875 179.316406 " fill-opacity="1" fill-rule="nonzero"/><path fill="#5ecf58" d="M 187.730469 233.746094 C 185.792969 233.746094 181.046875 233.476562 178.851562 230.960938 C 178.183594 230.195312 176.988281 228.824219 176.257812 220.679688 C 174.75 220.253906 173.273438 219.722656 171.832031 219.089844 C 166.015625 223.730469 164.070312 224.058594 163.199219 224.207031 C 162.902344 224.257812 162.597656 224.28125 162.292969 224.28125 C 159.140625 224.28125 156.128906 221.5625 154.613281 219.941406 C 153.109375 218.328125 150.613281 215.179688 150.8125 212.214844 C 150.902344 210.917969 151.367188 209.109375 155.414062 204.113281 C 154.453125 202.382812 153.648438 200.574219 153 198.699219 C 147.4375 197.984375 145.535156 197.085938 144.515625 196.363281 C 142.675781 195.054688 141.652344 192.589844 141.476562 189.039062 C 141.414062 187.835938 141.265625 181.710938 144.234375 179.117188 C 145.183594 178.289062 146.726562 177.363281 152.757812 176.695312 C 153.398438 174.710938 154.214844 172.789062 155.207031 170.949219 C 151.882812 166.613281 151.1875 164.671875 150.980469 163.453125 C 150.628906 161.371094 151.503906 159.066406 153.578125 156.609375 C 155.324219 154.542969 159.1875 151.046875 162.613281 151.046875 C 162.730469 151.046875 162.851562 151.046875 162.964844 151.058594 C 164.277344 151.148438 166.117188 151.625 171.269531 155.832031 C 172.917969 155.074219 174.625 154.445312 176.378906 153.957031 C 177.207031 147.003906 178.304688 145.457031 178.804688 144.753906 C 180.605469 142.214844 184.339844 141.683594 187.15625 141.683594 C 189.09375 141.683594 193.839844 141.957031 196.035156 144.472656 C 196.71875 145.253906 197.941406 146.660156 198.667969 155.191406 C 199.917969 155.699219 201.140625 156.277344 202.324219 156.925781 C 208.683594 151.734375 210.832031 151.371094 211.6875 151.222656 C 211.984375 151.171875 212.289062 151.148438 212.597656 151.148438 C 215.746094 151.148438 218.757812 153.867188 220.269531 155.488281 C 221.777344 157.101562 224.273438 160.25 224.074219 163.214844 C 224 164.25 223.859375 166.324219 217.503906 173.667969 C 217.882812 174.585938 218.246094 175.53125 218.550781 176.351562 C 222.699219 176.710938 228.125 177.472656 230.371094 179.070312 C 232.210938 180.375 233.234375 182.839844 233.414062 186.394531 C 233.472656 187.59375 233.621094 193.71875 230.652344 196.3125 C 229.855469 197.011719 228.257812 198.40625 218.289062 199.082031 C 217.984375 199.957031 217.65625 200.828125 217.367188 201.570312 C 220.0625 204.773438 223.441406 209.230469 223.90625 211.980469 C 224.257812 214.0625 223.386719 216.363281 221.308594 218.824219 C 219.5625 220.890625 215.699219 224.386719 212.273438 224.386719 C 212.15625 224.386719 212.035156 224.382812 211.921875 224.375 C 210.90625 224.304688 208.878906 224.167969 201.765625 218.046875 C 200.777344 218.566406 199.765625 219.035156 198.730469 219.453125 C 197.90625 228.105469 196.550781 230.015625 196.082031 230.675781 C 194.28125 233.214844 190.546875 233.746094 187.730469 233.746094 Z M 184.320312 226.117188 C 184.953125 226.320312 186.195312 226.566406 187.730469 226.566406 C 189.074219 226.566406 189.933594 226.382812 190.347656 226.246094 C 190.777344 225.0625 191.410156 221.472656 191.769531 216.605469 L 191.949219 214.203125 L 194.234375 213.457031 C 196.359375 212.765625 198.398438 211.808594 200.296875 210.613281 L 202.585938 209.171875 L 204.601562 210.980469 C 208.621094 214.585938 211.261719 216.484375 212.378906 217.085938 C 213.75 216.433594 216.152344 214.144531 216.730469 212.917969 C 216.105469 211.546875 213.351562 207.832031 210.535156 204.644531 L 209.046875 202.960938 L 209.910156 200.886719 C 209.925781 200.847656 211.542969 196.953125 212.171875 194.683594 L 212.863281 192.179688 L 215.453125 192.054688 C 220.597656 191.800781 224.40625 191.269531 225.828125 190.835938 C 226.339844 189.410156 226.417969 186.085938 225.957031 184.8125 C 224.546875 184.285156 219.976562 183.605469 215.734375 183.34375 L 213.328125 183.195312 L 212.554688 180.910156 C 212.15625 179.734375 210.9375 176.324219 210.089844 174.691406 L 208.945312 172.484375 L 210.605469 170.636719 C 214.261719 166.566406 216.183594 163.890625 216.789062 162.757812 C 216.140625 161.386719 213.855469 158.988281 212.628906 158.40625 C 211.65625 158.863281 209.027344 160.597656 205.007812 164.042969 L 202.960938 165.792969 L 200.710938 164.320312 C 198.667969 162.984375 196.464844 161.929688 194.160156 161.1875 L 191.839844 160.4375 L 191.683594 158 C 191.359375 153.007812 190.875 150.359375 190.566406 149.3125 C 189.933594 149.109375 188.691406 148.863281 187.15625 148.863281 C 185.820312 148.863281 184.960938 149.042969 184.546875 149.179688 C 184.253906 150.019531 183.691406 152.457031 183.253906 157.1875 L 183.007812 159.863281 L 180.375 160.382812 C 177.617188 160.925781 174.964844 161.890625 172.503906 163.246094 L 170.324219 164.445312 L 168.441406 162.828125 C 164.933594 159.820312 163.207031 158.726562 162.503906 158.347656 C 161.136719 159 158.757812 161.265625 158.167969 162.496094 C 158.453125 163.078125 159.402344 164.78125 162.324219 168.375 L 163.964844 170.390625 L 162.566406 172.578125 C 160.933594 175.140625 159.746094 177.933594 159.039062 180.875 L 158.429688 183.398438 L 155.847656 183.613281 C 151.648438 183.960938 149.792969 184.378906 149.0625 184.597656 C 148.554688 186.03125 148.476562 189.328125 148.933594 190.609375 C 149.699219 190.878906 151.894531 191.398438 156.105469 191.828125 L 158.566406 192.078125 L 159.207031 194.46875 C 159.96875 197.3125 161.179688 200 162.808594 202.464844 L 164.300781 204.726562 L 162.542969 206.78125 C 159.566406 210.261719 158.480469 211.980469 158.105469 212.679688 C 158.757812 214.050781 161.035156 216.441406 162.257812 217.019531 C 163.066406 216.632812 165.25 215.273438 169.03125 212.109375 L 170.875 210.566406 L 173 211.683594 C 175.320312 212.902344 177.789062 213.773438 180.335938 214.28125 L 183.039062 214.816406 L 183.21875 217.566406 C 183.539062 222.472656 184.015625 225.078125 184.320312 226.117188 Z M 184.320312 226.117188 " fill-opacity="1" fill-rule="nonzero"/></svg>